<svg id="Layer_1" data-name="Layer 1" xmlns="http://www.w3.org/2000/svg" xmlns:xlink="http://www.w3.org/1999/xlink" viewBox="0 0 501.8 387.57"><defs><style>.cls-1,.cls-2,.cls-30,.cls-4,.cls-8{fill:none;}.cls-1{stroke:#708cd5;}.cls-1,.cls-2,.cls-30,.cls-33,.cls-4,.cls-8{stroke-miterlimit:10;}.cls-1,.cls-33{stroke-width:3.5px;}.cls-2{stroke:#f4ebd7;stroke-width:2.6px;}.cls-3{fill:#f4ebd7;}.cls-4{stroke:#102048;stroke-width:5px;}.cls-5{clip-path:url(#clip-path);}.cls-33,.cls-6{fill:#fff;}.cls-7{opacity:0.6;}.cls-8{stroke:#1f3c88;stroke-dasharray:19.91 19.91;}.cls-30,.cls-8{stroke-width:2.5px;}.cls-9{fill:#d3dfff;}.cls-10,.cls-15,.cls-32{fill:#ee6f57;}.cls-11{fill:#fbc343;}.cls-12{fill:#6f3428;}.cls-13{fill:#e28b6d;}.cls-14{fill:#f9b384;}.cls-15{opacity:0.3;}.cls-16,.cls-24,.cls-28,.cls-32{opacity:0.4;}.cls-17,.cls-18,.cls-28,.cls-31{fill:#1f3c88;}.cls-17{opacity:0.15;}.cls-19,.cls-21,.cls-22,.cls-23{fill:#27481f;}.cls-20{fill:#49883a;}.cls-21{opacity:0.5;}.cls-22{opacity:0.38;}.cls-23{opacity:0.2;}.cls-24,.cls-29{fill:#c89b35;}.cls-25{fill:#b35341;}.cls-26{fill:#708cd5;}.cls-27{fill:#102048;}.cls-30{stroke:#e28b6d;}.cls-31{opacity:0.1;}.cls-33{stroke:#8cbfbe;}.cls-34{fill:#8cbfbe;}.cls-35{fill:#c6eae9;}</style><clipPath id="clip-path" transform="translate(0 -75.42)"><polygon class="cls-1" points="265.67 97.73 265.67 218.25 265.67 234.35 284.38 218.25 414.61 218.25 414.61 97.73 265.67 97.73"/></clipPath></defs><title>3</title><path class="cls-2" d="M368.35,322.31a84.86,84.86,0,0,1,9.78-6c17.63-9.05,34.12-18.34,47.88-32.61C442.31,266.8,453.74,244,453.74,220s-12.88-48.48-34.09-58.41c-26.39-12.35-56.59-.6-85.31,2.36-37,3.82-73.83-7.45-110.37-15.23S147.73,137,114.55,154.15C87.83,167.94,68.16,195.24,63,225.66s4.37,63.23,24.91,85.94c29.64,32.77,76.27,41.59,119.5,43.68A576.49,576.49,0,0,0,302.89,352c14.27-1.69,27.63-4.59,40.24-11.69C352.19,335.17,359.93,328.22,368.35,322.31Z" transform="translate(0 -75.42)"/><path class="cls-3" d="M172.16,352.35c-22.25-2.63-44.65-8-64.32-19.79s-36.45-30.6-43-53.62-1.37-50.13,15.49-65.48c21-19.1,52.06-16.06,79.37-21.07,35.22-6.46,66.11-27.36,97.7-44.84s67.15-32.14,102.46-24.75c28.43,6,54.06,26.83,67.12,54.67s13.26,62,.51,89.44c-18.39,39.62-59,60.86-98.33,74.69a532.7,532.7,0,0,1-89,22.93c-11.11,1.86-22.45,3.37-33.64,1.61s-22.37-7.17-29.3-16.85Z" transform="translate(0 -75.42)"/><line class="cls-4" y1="321.32" x2="501.8" y2="321.32"/><g class="cls-5"><rect class="cls-6" x="265.67" y="22.3" width="148.94" height="143.25"/><g class="cls-7"><path class="cls-8" d="M307.94,187.33c-13.46-8.4-19-22.33-19.05-35.78,0-11.3,4.86-25.24,21.07-22.76,10.89,1.67,20,8.33,30.44,11.27,8.45,2.38,17.42,1.69,26,1.27,13.41-.66,28,7.13,29.42,16.08,1.9,12,.14,25.28-10.43,32.27C366.86,201.91,328.77,200.32,307.94,187.33Z" transform="translate(0 -75.42)"/></g><path class="cls-9" d="M319.2,201.14c-15.67-2.44-26.23-13.09-31.55-25.44-4.47-10.38-5.42-25.13,10.45-29.2,10.68-2.74,21.67-.18,32.42-1.57,8.71-1.12,16.69-5.28,24.4-9C367,130,381,127.61,388.29,139.16c6.48,10.27,5.13,24.37-1.86,34.94C374.2,192.62,343.46,204.92,319.2,201.14Z" transform="translate(0 -75.42)"/><circle class="cls-10" cx="291.58" cy="112.67" r="6.23" transform="translate(114.93 295.14) rotate(-76.72)"/><path class="cls-6" d="M292.93,115.32l-1.36-1.83-1.37,1.83h-1.37l2.06-2.69-2-2.61h1.39l1.3,1.74,1.3-1.74h1.34l-2,2.59,2.08,2.71Z" transform="translate(0 -75.42)"/><circle class="cls-11" cx="307.61" cy="112.67" r="6.23" transform="translate(122.5 307.54) rotate(-75.71)"/><rect class="cls-6" x="305.11" y="36.56" width="5.01" height="1.37"/><path class="cls-12" d="M364.46,185.66c-15.58,8.93-23.14,6.47-25.59,5.09-2.45,1.38-10,3.84-25.59-5.09-14.92-8.55-6.22-26.94-.34-38.13,3.19-6.08,5.65-12.5,11.25-16.88,5.27-4.12,11.17-5.39,18.1-5.05,9.51.47,15.42,6.14,18.34,12.94,2.32,5.41,5.2,10.47,7.74,15.76,2.37,5,4.29,10.37,4.47,15.88C373,176.59,370.28,182.33,364.46,185.66Z" transform="translate(0 -75.42)"/><path class="cls-10" d="M368.17,184.58c-9.54-10.74-27.11-8.5-29-8.22-1.87-.28-19.44-2.52-29,8.22-7.19,8.08-7.09,40.34-7.09,40.34,0-.79,33.42-1,36.07-1s36.08.25,36.08,1C375.27,224.92,375.36,192.66,368.17,184.58Z" transform="translate(0 -75.42)"/><path class="cls-13" d="M324.39,152.19c-3.75.38-6.87,9.51,3.26,9.7l2.42-2.87Z" transform="translate(0 -75.42)"/><path class="cls-13" d="M354.08,152.19c4.23.22,7.22,9.51-2.9,9.7L348.75,159Z" transform="translate(0 -75.42)"/><path class="cls-14" d="M330.76,90.4h16.86a0,0,0,0,1,0,0V101a8.43,8.43,0,0,1-8.43,8.43h0a8.43,8.43,0,0,1-8.43-8.43V90.4A0,0,0,0,1,330.76,90.4Z"/><path class="cls-13" d="M347.58,168.08c-5.55,9-11.18,8.88-16.89.31Z" transform="translate(0 -75.42)"/><path class="cls-14" d="M355.46,145.44c-.09.82-.18,1.63-.29,2.44-1.75,13.36-6.31,23.83-16.23,23.83-10.18,0-13.72-10.05-15.58-24-.16-1.15-.29-2.32-.43-3.52l20-8Z" transform="translate(0 -75.42)"/><path class="cls-12" d="M321.31,151.88c5.09,1.72,14.82-4,14.82-4-.75-2.18.31-4.34,2.44-6.47-.13,2.17.38,5.57,2.31,6.82a8.31,8.31,0,0,0,3.35-.13,7.17,7.17,0,0,1,1.38-6.41s2.28,6.23,3.41,7.63c1.42,1.78,6.55,4.47,11.13,2.22l-8.54-19.33L329,131.71l-10.23,9.47Z" transform="translate(0 -75.42)"/><ellipse class="cls-12" cx="333.37" cy="77.01" rx="1.35" ry="1.84"/><ellipse class="cls-12" cx="344.69" cy="77.01" rx="1.35" ry="1.84"/><path class="cls-13" d="M340.8,157.4c0,1.79.15,3.2-1.34,3.24s-1.34-1.45-1.34-3.24.6-3.24,1.34-3.24S340.8,155.61,340.8,157.4Z" transform="translate(0 -75.42)"/><path class="cls-6" d="M335.31,163.66l8.5-.24S340.26,170.22,335.31,163.66Z" transform="translate(0 -75.42)"/><circle class="cls-15" cx="347.55" cy="83.39" r="3.6"/><circle class="cls-15" cx="332.07" cy="159.19" r="3.6" transform="translate(121.96 386.2) rotate(-80.82)"/><g class="cls-16"><path class="cls-12" d="M329.24,184.84a7.12,7.12,0,0,0,2.2,1.69,12.86,12.86,0,0,0,2.62,1,17.79,17.79,0,0,0,5.57.65,14.4,14.4,0,0,0,5.42-1.24,11.59,11.59,0,0,0,4.34-3.5l.37.24a10.4,10.4,0,0,1-1.82,2.37,11.59,11.59,0,0,1-2.45,1.77,13.56,13.56,0,0,1-5.81,1.48,16.24,16.24,0,0,1-5.91-.86,13.16,13.16,0,0,1-2.71-1.28,6.93,6.93,0,0,1-2.18-2.1Z" transform="translate(0 -75.42)"/></g><g class="cls-16"><path class="cls-12" d="M319.7,198.54c.07,1.91.08,3.82.07,5.73s0,3.82-.1,5.72-.14,3.82-.26,5.73l-.19,2.85c-.09,1-.16,1.91-.27,2.86h-.44c-.05-1-.05-1.92-.08-2.87v-2.87c0-1.91.05-3.81.12-5.72s.14-3.82.27-5.72.24-3.82.44-5.72Z" transform="translate(0 -75.42)"/></g><g class="cls-16"><path class="cls-12" d="M359.53,197.58c.32,1.91.57,3.82.81,5.74s.45,3.84.65,5.76.36,3.85.49,5.78l.18,2.9c0,1,.09,1.93.1,2.9l-.43,0c-.18-.95-.31-1.91-.46-2.87L360.5,215q-.36-2.88-.63-5.77c-.18-1.92-.35-3.85-.47-5.78s-.26-3.85-.31-5.79Z" transform="translate(0 -75.42)"/></g></g><polygon class="cls-1" points="265.67 22.3 265.67 142.83 265.67 158.93 284.38 142.83 414.61 142.83 414.61 22.3 265.67 22.3"/><ellipse class="cls-17" cx="61.08" cy="344.58" rx="23.85" ry="4.54"/><path class="cls-18" d="M50.14,411.17c-5.16,0-10.9-7.56-10.9-12.67a9.25,9.25,0,1,1,18.49,0C57.73,403.39,55.67,411.17,50.14,411.17Zm-1.66-19a6.21,6.21,0,0,0-6.11,6.3c0,3.83,4.65,9.53,7.77,9.53,2.86,0,4.45-5.64,4.45-9.53A6.21,6.21,0,0,0,48.48,392.2Z" transform="translate(0 -75.42)"/><path class="cls-18" d="M68,419.33H54.4a4.33,4.33,0,0,1-4.32-4l-2.81-33.83h28.4l-3.38,33.9A4.34,4.34,0,0,1,68,419.33Z" transform="translate(0 -75.42)"/><path class="cls-9" d="M50.56,341a21.2,21.2,0,0,0-.83,9.61,20.9,20.9,0,0,0,1.33,4.58,27,27,0,0,0,2.34,4.2,34.5,34.5,0,0,0,3.05,3.82c.26.28.55.64.84,1s.59.68.85,1.05l.76,1.16a10.52,10.52,0,0,1,.62,1.26A7.4,7.4,0,0,1,60,369a6.78,6.78,0,0,1,.24,1.43,3,3,0,0,1,0,.73l0,.73c0,.24-.1.48-.15.71a4,4,0,0,1-.21.7l-.27.66c-.11.21-.24.42-.35.62a5,5,0,0,1-.4.58,3.84,3.84,0,0,1-.44.54,7.9,7.9,0,0,1-2.13,1.72l-.52-.83a7.58,7.58,0,0,0,2.43-3.81,2.05,2.05,0,0,0,.1-.54,4.78,4.78,0,0,0,.06-.53l0-.54a1.88,1.88,0,0,0-.06-.53,5.4,5.4,0,0,0-.27-1.05,4.8,4.8,0,0,0-.43-1c-.2-.33-.34-.67-.57-1l-.68-.94c-.24-.31-.52-.59-.78-.89l-.83-.9c-.6-.64-1.2-1.28-1.74-2s-1.08-1.39-1.59-2.11A25.52,25.52,0,0,1,48.84,356a19.9,19.9,0,0,1-1.24-5.21,18.66,18.66,0,0,1,2.06-10.25Z" transform="translate(0 -75.42)"/><path class="cls-9" d="M62.9,340a11.73,11.73,0,0,1,3.85,5.76,12.42,12.42,0,0,1,.51,3.54,15.88,15.88,0,0,1-.41,3.51,21.62,21.62,0,0,1-1.09,3.3l-.3.73c-.09.22-.2.45-.27.68l-.19.68c-.07.23-.08.45-.13.68a3,3,0,0,0,0,.66,2.72,2.72,0,0,0,0,.64,4.18,4.18,0,0,0,.15.61,4.25,4.25,0,0,0,.29.56,4.86,4.86,0,0,0,2.15,1.77l-.19,1a5.27,5.27,0,0,1-3.34-1.64,6.06,6.06,0,0,1-.6-.81,5.79,5.79,0,0,1-.4-.93,5,5,0,0,1-.22-1,5.3,5.3,0,0,1,0-1,7.46,7.46,0,0,1,.08-1l.19-.91c.07-.3.18-.58.27-.87s.19-.59.28-.81a24.56,24.56,0,0,0,.93-2.95,17.1,17.1,0,0,0,.44-3,13.45,13.45,0,0,0-.19-3,14.38,14.38,0,0,0-2.49-5.6Z" transform="translate(0 -75.42)"/><ellipse class="cls-17" cx="423.3" cy="344.28" rx="47.69" ry="7.06"/><rect class="cls-19" x="419.64" y="229.29" width="6.69" height="65.47"/><path class="cls-20" d="M424.66,300.31a93.83,93.83,0,0,1-.89,11.31c-.29,2-.53,3.12-.53,3.12-18.27-5.93-26.65-17.25-30.14-28.68-.33-1-.6-2.09-.84-3.13-3.69-15.9,1.25-31.05,1.25-31.05,8.38,1.75,14.57,5.4,19.12,10.1.79.81,1.52,1.64,2.2,2.49C423.25,275,424.86,289.58,424.66,300.31Z" transform="translate(0 -75.42)"/><path class="cls-20" d="M448.35,268.66c-.36,12.71-5.31,27.52-20.64,41.74-1.18,1.09-2.42,2.19-3.72,3.27l-.42.35a64.53,64.53,0,0,1-5.16-9.79c0-.09-.07-.17-.1-.26a73,73,0,0,1-2.66-7.22,71,71,0,0,1-1.76-6.91c-1.84-9.36-1.85-20.45,3.26-31.43,3.82-8.27,10.55-16.48,21.56-23.84A61.86,61.86,0,0,1,448.35,268.66Z" transform="translate(0 -75.42)"/><path class="cls-21" d="M427.71,310.4c-1.18,1.09-2.42,2.19-3.72,3.27l-.42.35a64.53,64.53,0,0,1-5.16-9.79c0-.09-.07-.18-.1-.26h0c-.23-.52-.45-1.05-.67-1.6-.08-.21-.16-.43-.25-.65-.14-.37-.29-.73-.43-1.11l-.33-.92c-.11-.33-.23-.64-.34-1-.22-.64-.43-1.3-.64-2a71,71,0,0,1-1.76-6.91,52.23,52.23,0,0,1,.94-25.37c-.68-.85-1.41-1.68-2.2-2.49a90.19,90.19,0,0,0-4.95,24.88,71.83,71.83,0,0,0-15.42-3.93c.24,1,.51,2.09.84,3.13-2.6-.62-5.42-1.17-8.47-1.62,2.41,8.2,12.05,34.3,37.2,34.69.64,0,1.28,0,1.94,0,1,0,2.1-.11,3.19-.24A24.47,24.47,0,0,0,427.71,310.4Z" transform="translate(0 -75.42)"/><path class="cls-20" d="M423.93,317.74a.17.17,0,0,1,0,.07c0,.15,0,.3,0,.45l0,.2c0,.12,0,.24,0,.35,0,.35-.09.67-.14,1s-.07.4-.11.59a18.57,18.57,0,0,1-.71,2.69,40,40,0,0,1-5.14,0c-29.77-2-35.89-39-35.89-39,1,.12,1.9.25,2.81.39,3.05.45,5.87,1,8.47,1.62,10.76,2.56,17.88,6.42,22.55,10.69a26.73,26.73,0,0,1,3.57,3.93,24,24,0,0,1,4.55,10.94c.1.7.17,1.39.22,2.05A27.05,27.05,0,0,1,423.93,317.74Z" transform="translate(0 -75.42)"/><path class="cls-22" d="M448.35,268.66A52.53,52.53,0,0,1,443.64,289a67.14,67.14,0,0,1-15.93,21.43l-.1.08c-.45.42-.91.84-1.39,1.26l-.42.38c-.59.52-1.19,1-1.81,1.55-.05-.66-.12-1.35-.22-2.05a24,24,0,0,0-4.55-10.94,26.73,26.73,0,0,0-3.57-3.93,71,71,0,0,1-1.76-6.91,33.26,33.26,0,0,1,4.53,3.13,28.71,28.71,0,0,1,2.52,2.35C424.86,285.06,432.76,274.55,448.35,268.66Z" transform="translate(0 -75.42)"/><path class="cls-23" d="M423.93,317.74a.17.17,0,0,1,0,.07c0,.15,0,.3,0,.45l0,.2c0,.12,0,.24,0,.35,0,.35-.09.67-.14,1s-.07.4-.11.59a18.57,18.57,0,0,1-.71,2.69,40,40,0,0,1-5.14,0,61.24,61.24,0,0,1,.7-18.82c.23-1.16.5-2.35.81-3.55a24,24,0,0,1,4.55,10.94c.1.7.17,1.39.22,2.05A27.05,27.05,0,0,1,423.93,317.74Z" transform="translate(0 -75.42)"/><path class="cls-11" d="M452.59,361.81,445.23,410a11,11,0,0,1-10.88,9.34h-22.1a11,11,0,0,1-10.45-7.56,10.49,10.49,0,0,1-.42-1.78L394,361.81Z" transform="translate(0 -75.42)"/><path class="cls-20" d="M422.08,323.12S414,275.29,465.3,268.39C465.3,268.39,468.52,320.8,422.08,323.12Z" transform="translate(0 -75.42)"/><path class="cls-24" d="M452.59,361.81,445.23,410a11,11,0,0,1-10.88,9.34h-22.1a11,11,0,0,1-10.45-7.56c28.7-4.6,36.39-34.14,37.95-50Z" transform="translate(0 -75.42)"/><path class="cls-17" d="M346,420.28c0-5.88-52.43-10.65-117.1-10.65s-117.1,4.77-117.1,10.65c0,4.77,34.49,8.81,82,10.17,5.18,8.49-3.46,18.65-10.09,22.32-11.63.58-20,1.87-18.66,4.63,6.22,13.05,59-.83,59-.83s20.66,1.28,20.66-.68c0-.91-3.64-1.73-9.63-2.36l.45,0-22.3-22.66c5.1.06,10.31.1,15.6.1C293.52,430.94,346,426.17,346,420.28Z" transform="translate(0 -75.42)"/><path class="cls-10" d="M356.29,342c-1.54,25.47-14.38,50.92-35.43,64.93-25.09,16.69-60.16,13-88.73,15.13-24.7,1.83-49.59,3.41-74.29.79-20.25-2.16-40.66-10.18-50.33-29.84s-10.74-45.87-1.05-65.8a63.78,63.78,0,0,1,12.08-17c.79-.81,1.62-1.6,2.45-2.37.57-.52,1.14-1,1.72-1.54.89-.77,1.81-1.52,2.74-2.26l.92-.71.94-.71.95-.69.71-.51,1.21-.82a83.89,83.89,0,0,1,11.33-6.42,89.81,89.81,0,0,1,11.7-4.55c13-4,26.56-5.46,40-7.22,28.46-3.74,57.43-5,86.12-5,23.4,0,49.76,3.5,65.41,23.6C353.54,312.42,357.18,327.5,356.29,342Z" transform="translate(0 -75.42)"/><path class="cls-14" d="M308.1,299s6-5.67,9.24-8.95-3.78-3.39-7.22.7A9,9,0,0,0,308.1,299Z" transform="translate(0 -75.42)"/><path class="cls-25" d="M141.51,294.24a83.89,83.89,0,0,0-11.33,6.42l-1.21.82-.71.51-.95.69-.94.71-.92.71c-.92.73-1.82,1.48-2.7,2.24l0,0c-.58.5-1.15,1-1.72,1.54-.83.77-1.66,1.56-2.45,2.37a1.62,1.62,0,0,0,1.22,1.45c4.71.95,7.07,5.45,10.86,8a10.41,10.41,0,0,0,9.34,1.33c-3.44,7.27-5.33,14.48-3.85,22.62a29.12,29.12,0,0,0,2.3,7.11c-4.41-3.27-8.66-10.29-10.41-17.41a1.86,1.86,0,0,0-2.27-1.38,1.88,1.88,0,0,0-1.38,2.28c2.16,8.81,7.67,17.28,13.39,20.59a12.46,12.46,0,0,0,4.12,1.52,28.68,28.68,0,0,0,3.78,4l8.46,2.36L161,318.2Z" transform="translate(0 -75.42)"/><path class="cls-26" d="M166,324.16a182.16,182.16,0,0,1-36.68-18.88,14.17,14.17,0,0,1-5.95-14.09l9-52.57A16.22,16.22,0,0,1,142,226.45,160.22,160.22,0,0,1,183,215a99.07,99.07,0,0,1,15.84.31c5.85.58,19.23,4.52,27.73,7.16A16.46,16.46,0,0,1,237,232.23c3.57,9.19,9.36,24.72,11.21,33.1,6.38,29,5.33,26.83,5.33,26.83l6.59,44.55-70,3.92-17.88-8.15Z" transform="translate(0 -75.42)"/><path class="cls-27" d="M209.32,164.93s-6.19-12.7-22.66-6.9c-11.93-2.59-21,11.53-12.24,30.75L191,192.62Z" transform="translate(0 -75.42)"/><path class="cls-14" d="M200.54,200.86v22.48a9.53,9.53,0,0,1-9.53,9.52A12.9,12.9,0,0,1,178.11,220V200.86Z" transform="translate(0 -75.42)"/><path class="cls-13" d="M200.54,210.18v12.26c-10,.05-16.63-12.87-16.63-12.87Z" transform="translate(0 -75.42)"/><path class="cls-14" d="M210.43,198a42.93,42.93,0,0,1-2.7,9.1c-2.16,4.93-5.45,8.68-10.49,8.79-11.77.25-20.86-15.85-20.86-15.85l1.88-22,8.94-10,24.63,15.22A83.36,83.36,0,0,1,210.43,198Z" transform="translate(0 -75.42)"/><path class="cls-27" d="M177.87,193.64a32.38,32.38,0,0,1,10.9-16.31s12.32,16.08,25.34,8.31,7.37-23.06-4.79-20.71l-14-1.56-17.49,5.56-3,13.73Z" transform="translate(0 -75.42)"/><path class="cls-28" d="M190.23,307.55c-11.86-25.64-26.82-13.4-30.48-22.82-5.13-13.18-4.16-28.1-4.18-32.63l-7.15,40.24s16,1.52,21.86,11.13Z" transform="translate(0 -75.42)"/><path class="cls-18" d="M155.93,251.42c-.44,3.44-1,6.87-1.51,10.29s-1.15,6.84-1.72,10.26-1.22,6.83-1.89,10.23l-1,5.1c-.37,1.7-.71,3.4-1.11,5.09l-.52-.09c.21-1.73.47-3.44.7-5.16l.79-5.14c.54-3.43,1.13-6.85,1.74-10.26s1.23-6.82,1.91-10.22,1.35-6.81,2.11-10.19Z" transform="translate(0 -75.42)"/><path class="cls-18" d="M225.25,245.05c.95,4.48,1.83,9,2.69,13.45s1.66,9,2.49,13.47,1.58,9,2.34,13.51l1.09,6.76c.34,2.26.7,4.52,1,6.78l-.48.09c-.49-2.24-.93-4.48-1.39-6.72l-1.31-6.72q-1.27-6.74-2.48-13.48c-.77-4.5-1.59-9-2.32-13.51s-1.47-9-2.12-13.54Z" transform="translate(0 -75.42)"/><path class="cls-28" d="M228.57,265.81c.83,8.15-.42,50.4-20.08,51l.21,9.21,31-1.89Z" transform="translate(0 -75.42)"/><path class="cls-13" d="M188.15,315.69c14-6,16.63-5.74,18.51-5.65,6.43.32,15.68,13.18,15.68,13.18l-.15,2.35h-35.3Z" transform="translate(0 -75.42)"/><rect class="cls-6" x="198.39" y="247.85" width="43.45" height="6.59"/><polygon class="cls-11" points="300.94 254.44 225.43 254.44 242.37 186.97 317.88 186.97 300.94 254.44"/><path class="cls-29" d="M307.78,302.27c-7.47-1.12-31.63-6.14-81.41,24.19l-1.15,4.19,75.72-.78Z" transform="translate(0 -75.42)"/><path class="cls-14" d="M309.21,317.26c-.47,3.18-.62,7.84-10.47,7.26l-2.9-1.49,2.75-3,5.92-3Z" transform="translate(0 -75.42)"/><path class="cls-14" d="M310.14,308.68s5.39,7,0,9.21A31.27,31.27,0,0,1,298.59,320c2.51-7.06,10.66-6.59,10.66-6.59Z" transform="translate(0 -75.42)"/><path class="cls-14" d="M310.3,304.13s7.42,6.91.52,8.84c-9.75,2.73-12.76,2.93-12.76,2.93-.52-5.18,9.15-8.52,9.15-8.52Z" transform="translate(0 -75.42)"/><path class="cls-14" d="M308.78,298.12s10.15,6.17.63,9.62-11.77,3.4-11.77,3.4c-.52-5.17,9.68-6.95,9.68-6.95Z" transform="translate(0 -75.42)"/><path class="cls-30" d="M297.64,311.14s11.06-1.57,14.36-4.23" transform="translate(0 -75.42)"/><path class="cls-30" d="M298.06,315.9s11.51-1.62,15.11-4.13" transform="translate(0 -75.42)"/><path class="cls-30" d="M298.59,320s6.82.23,10.66-1.65" transform="translate(0 -75.42)"/><path class="cls-27" d="M191.44,418.92c1.15-.63,19.35,3.34,39.53-11.61l-26-7.43Z" transform="translate(0 -75.42)"/><path class="cls-25" d="M307.07,332.54c.87-1.24,1.61-3.06.52-4.1s-3-.13-4.19.9a50.22,50.22,0,0,0-5.77,5.9l-44,8.17-60.24,14.64,10.36,13.22c30.12,2.19,47.27,2.76,66.12-.57,9.61-1.69,18.2-3.44,24.6-8.66,1.53-1.25,3-3.35,2-5.05-.67-1.15-2.06-1.45-3.46-1.43a44.72,44.72,0,0,0,9.31-3.32c1.32-.64,2.8-1.65,2.77-3.12a2.74,2.74,0,0,0-1.86-2.32,7.33,7.33,0,0,0-3.1-.27,42.35,42.35,0,0,0-11.76,2.6C295.25,344.34,302.24,339.37,307.07,332.54Zm-18.78,16.65,0,0,.07,0Z" transform="translate(0 -75.42)"/><path class="cls-27" d="M206.19,338.28s58.67-27.92,77.81-26.67,18.51,25.1,11.29,35.46-24.16,24.16-86.59,20.08Z" transform="translate(0 -75.42)"/><path class="cls-9" d="M235.55,453.5c-3.18.9-7.68,1.12-13.88.13,0,0-8,2.09-15.94,3.73-5.35,1.11-10.64,2-13.35,1.92-.23,0-.46,0-.7,0-5.19-.37-11.73-3.07-15.2-6.94l0,0a9.51,9.51,0,0,1-2.07-3.44c-1.88-5.86,2.1-13,23.64-11.51,0,0,7.11-1.67,8.78-6.9s-10.66-30.33-10.66-30.33l17.57-11.92L231,407.31s2.62,17.25,2.62,22.9c0,0,7.32,10.46,8.36,15.06C242.62,448.21,241.16,451.92,235.55,453.5Z" transform="translate(0 -75.42)"/><path class="cls-18" d="M136.76,294.58c2-.78,4.06-1.4,6.13-2,1-.28,2.09-.55,3.15-.75.53-.11,1.07-.2,1.61-.28l.83-.09a6.39,6.39,0,0,1,.88,0,26,26,0,0,1,6.33,1.7c2,.76,4,1.63,5.94,2.56s3.84,1.94,5.7,3,3.7,2.21,5.48,3.42a58.81,58.81,0,0,1,9.87,8.28l-.37.38a63.35,63.35,0,0,0-4.93-4c-1.69-1.28-3.44-2.48-5.24-3.62A106.83,106.83,0,0,0,161.05,297c-1.9-.95-3.84-1.82-5.81-2.59a28.25,28.25,0,0,0-6-1.8,6,6,0,0,0-.72,0l-.77.06c-.51.06-1,.13-1.55.22q-1.56.27-3.12.63c-2.07.47-4.14,1-6.16,1.65Z" transform="translate(0 -75.42)"/><path class="cls-25" d="M147.2,376.72c7.06-.47,14,0,19-1.73,5.38-1.88,19.45-.63,19.45-.63L178,363.22l-31.38,7.85Z" transform="translate(0 -75.42)"/><path class="cls-18" d="M147.51,356.17c-7.21-11.61-7.21-34.52,1.89-44.87,10.4-11.83,32.63-16.32,44.24-2.51s32.94,64.32,37.33,98.52c0,0-23.53-7.85-39.53,11.61,0,0-21-48-25.41-65.58l-11.93,9.41Z" transform="translate(0 -75.42)"/><path class="cls-9" d="M166,353.34s-3.14-1.15-7.53,1.78c0,0-34.31-.73-41.94,7s-1.78,18.09,9.41,19.24c9.39,1,27.62-6.32,33.24-8.69a11.14,11.14,0,0,1,3.59-.85l9.29-.6Z" transform="translate(0 -75.42)"/><path class="cls-14" d="M179.72,194.28s-2.3-7.62-7.36-5.72S170,200.4,180,203.16Z" transform="translate(0 -75.42)"/><path class="cls-18" d="M174.33,236.33a36.49,36.49,0,0,0,8,4.35,23.56,23.56,0,0,0,8.78,1.66,19.43,19.43,0,0,0,8.6-2.14l1-.5c.33-.19.63-.41.94-.61a13.36,13.36,0,0,0,1.83-1.33l.88-.71.45-.36c.14-.12.27-.27.4-.4.54-.54,1.08-1.07,1.64-1.6l.37.32c-.49.59-1,1.19-1.51,1.78-.13.14-.25.3-.38.44l-.43.4-.85.8a16.24,16.24,0,0,1-1.84,1.47c-.32.23-.63.48-1,.69l-1,.58a18.88,18.88,0,0,1-9.09,2.41,23.19,23.19,0,0,1-9.2-1.92,30.06,30.06,0,0,1-7.89-4.95Z" transform="translate(0 -75.42)"/><path class="cls-27" d="M160.83,333.31l2.72,9.51c.92,3.17,1.78,6.35,2.75,9.5s1.89,6.31,2.88,9.45c.5,1.56,1,3.14,1.53,4.69.27.78.51,1.57.79,2.34s.55,1.55.82,2.33l-.45.19q-1.05-2.25-2-4.56c-.62-1.54-1.18-3.09-1.75-4.65-1.11-3.11-2.1-6.27-3-9.44s-1.8-6.36-2.59-9.57-1.54-6.43-2.17-9.68Z" transform="translate(0 -75.42)"/><path class="cls-31" d="M235.55,453.5c-3.18.9-7.68,1.12-13.88.13,0,0-13.29,3.41-21.68,4.74,8.63-1.73,21.18-12.39,19.77-19.14C232.15,443.31,235.52,449.51,235.55,453.5Z" transform="translate(0 -75.42)"/><path class="cls-28" d="M202.18,454.68a12.49,12.49,0,0,1-6.49,4,17.57,17.57,0,0,1-4,.58c-5.19-.37-11.73-3.07-15.2-6.94l0,0a13,13,0,0,1-1-1.56,25,25,0,0,0,6,4.2,23.44,23.44,0,0,0,3.33,1.35c.56.22,1.14.34,1.72.51a16.93,16.93,0,0,0,1.75.35A19.4,19.4,0,0,0,202.18,454.68Z" transform="translate(0 -75.42)"/><path class="cls-13" d="M177.45,195.36a5.18,5.18,0,0,0-.82-1.9,5.68,5.68,0,0,0-1.38-1.5,1.53,1.53,0,0,0-1.6-.29,3.6,3.6,0,0,0-1.28,1.51l-.35-.12a3.13,3.13,0,0,1,1.21-2.1,1.87,1.87,0,0,1,1.36-.29,3.06,3.06,0,0,1,1.2.53,5.18,5.18,0,0,1,1.54,1.86,4,4,0,0,1,.49,2.31Z" transform="translate(0 -75.42)"/><path class="cls-27" d="M207.31,195.17c-.22,1.09-1,1.83-1.82,1.67s-1.25-1.16-1-2.25,1-1.83,1.82-1.67A1.79,1.79,0,0,1,207.31,195.17Z" transform="translate(0 -75.42)"/><ellipse class="cls-27" cx="193.65" cy="194.47" rx="2" ry="1.45" transform="translate(-29.45 278.87) rotate(-80.74)"/><path class="cls-13" d="M200.27,196.17c.08.89.11,1.78.12,2.65a1.63,1.63,0,0,0,.47.92,9.12,9.12,0,0,1,.91,1,2.05,2.05,0,0,1,.32.76,2.43,2.43,0,0,1,.06.8,2.64,2.64,0,0,1-.58,1.46,2.15,2.15,0,0,1-.64.52,1.93,1.93,0,0,1-.81.17,2.77,2.77,0,0,1-1.38-.5l.18-.33a2.46,2.46,0,0,0,1.17.17,1.17,1.17,0,0,0,.83-.53,1.92,1.92,0,0,0,.07-2c-.2-.31-.52-.61-.82-1a2.26,2.26,0,0,1-.58-1.48c.07-.91.17-1.8.31-2.69Z" transform="translate(0 -75.42)"/><path class="cls-27" d="M190.16,190.92a5.87,5.87,0,0,1,1.76-1.21,4.6,4.6,0,0,1,2.18-.42,3.94,3.94,0,0,1,2.11.78,4.87,4.87,0,0,1,1.41,1.63l-.29.23a9.77,9.77,0,0,0-1.56-1.17,4.05,4.05,0,0,0-1.73-.53,7.22,7.22,0,0,0-3.67,1Z" transform="translate(0 -75.42)"/><path class="cls-27" d="M202.92,192a2.72,2.72,0,0,1,1.38-1.51,4.21,4.21,0,0,1,2-.44,4.06,4.06,0,0,1,2,.54,3.16,3.16,0,0,1,1.35,1.5l-.3.2a4.45,4.45,0,0,0-3.06-1.31,3.7,3.7,0,0,0-3,1.19Z" transform="translate(0 -75.42)"/><path class="cls-6" d="M194.36,206.73l8.32.59S198,213.48,194.36,206.73Z" transform="translate(0 -75.42)"/><path class="cls-32" d="M210.43,198a42.93,42.93,0,0,1-2.7,9.1,4.81,4.81,0,0,1,2.06-9.15A4.48,4.48,0,0,1,210.43,198Z" transform="translate(0 -75.42)"/><circle class="cls-32" cx="189.24" cy="201.7" r="4.81" transform="translate(-63.33 13.58) rotate(-22.78)"/><path class="cls-33" d="M121.58,192.18a32.89,32.89,0,1,0-12.51,8.64L126.75,208Z" transform="translate(0 -75.42)"/><circle class="cls-34" cx="82.42" cy="95.48" r="3.52"/><circle class="cls-34" cx="97.13" cy="95.48" r="3.52"/><circle class="cls-34" cx="111.84" cy="95.48" r="3.52"/><path class="cls-33" d="M205.82,77.17H141a6.7,6.7,0,0,0-6.68,6.68v27.81a6.7,6.7,0,0,0,6.68,6.68h6L156.73,133l2.89-14.62h46.2a6.7,6.7,0,0,0,6.68-6.68V83.85A6.7,6.7,0,0,0,205.82,77.17Z" transform="translate(0 -75.42)"/><rect class="cls-34" x="145.67" y="11.87" width="55.51" height="3.19"/><rect class="cls-35" x="145.67" y="20.28" width="55.51" height="3.19"/><rect class="cls-35" x="145.67" y="28.69" width="55.51" height="3.19"/></svg>