<?xml version="1.0" encoding="utf-8"?>
<!-- Generator: Adobe Illustrator 22.1.0, SVG Export Plug-In . SVG Version: 6.00 Build 0)  -->
<svg version="1.1" id="Layer_1" xmlns="http://www.w3.org/2000/svg" xmlns:xlink="http://www.w3.org/1999/xlink" x="0px" y="0px"
	 viewBox="0 0 553.7 546" style="enable-background:new 0 0 553.7 546;" xml:space="preserve">
<style type="text/css">
	.st0{fill:#DE5FBF;}
</style>
<title>kt</title>
<g>
	<path class="st0" d="M473.1,272.9l35.4-35.3c26.6-26.5,39.9-61.5,39.9-96.5c0-13.7-2-27.4-6.1-40.6c-6.3-20.5-17.6-39.8-33.8-55.9
		c-10.5-10.4-22.3-18.8-34.8-25.2C422.3-6.5,357.7,1.9,314.9,44.5L129.6,229.4l-16.1-16l-40.2-40.1l-6.8-6.8l-0.3,0.3V94
		c0-16.6,13.5-30,30.1-30h57.9c16.6,0,30.1,13.4,30.1,30v20.6c0,2,2.5,3.1,3.9,1.6l56.3-57.1c0.4-0.4,0.7-1,0.7-1.6V34
		c0-16.6-13.5-30-30.1-30H35.4C18.8,4,5.3,17.4,5.3,34v157.6l60.9,60.8v-0.2l4.2,4.2l16.1,16.1l-0.1,0.1l227.3,227.6
		c26.6,26.5,61.7,39.8,96.8,39.8c35.1,0,70.2-13.3,96.8-39.8c53.2-53.1,53.2-140,0-193L473.1,272.9z M202.9,156.5L202.9,156.5l0,3.7
		h0V156.5z M464.3,457.2c-14.8,14.7-34.2,22.1-53.7,22.1c-19.5,0-38.9-7.4-53.7-22.1L176,276.7c-2-2-2-5.2,0-7.2l182.5-182
		C388,58,436.4,58,465.9,87.5c14.8,14.7,22.1,34.1,22.1,53.6c0,19.4-7.4,38.8-22.1,53.6l-77.6,77.4l42.8,42.7l33.2,35.3
		C493.8,379.5,493.8,427.7,464.3,457.2z"/>
	<path class="st0" d="M66.2,444.3c0,15,11,27.4,25.4,29.6c1.5,0.2,3.1,0.4,4.7,0.4h61c14.9,0,26.9-12,26.9-26.9V426
		c0-3.1,3.7-4.6,5.9-2.4l7.7,7.7l46.4,46.3l0.1,0.4l0.5,30.1c0,2.6-0.3,5.1-0.9,7.6c-3.7,12.5-15.2,21.5-28.9,21.5H35.4
		c-15.3,0-27.9-11.4-29.8-26.1c-0.1-1-0.1-2-0.1-3V347.4l19.8-19.8L61,292l5.3,5.3L92.1,323l10.9,10.9l-35.7,35.6L66.2,444.3z"/>
</g>
</svg>
